<svg width="256" height="180" viewBox="0 0 256 180" fill="none" xmlns="http://www.w3.org/2000/svg">
<g clip-path="url(#clip0_14_2)">
<path d="M129.55 1.25C129.63 1.39 135.17 12.19 154 49L128.33 99.75C114.21 127.66 99.92 155.86 96.58 162.42C93.24 168.97 90.05 174.48 89.5 174.66C88.95 174.84 83.24 164.75 76.8 152.24C70.2 139.41 65.41 128.96 65.8 128.26C66.18 127.58 67.85 126.3 69.5 125.42C71.15 124.54 77.19 120.15 82.92 115.66C88.65 111.17 97.68 103.22 102.98 98C108.29 92.77 113.8 86.47 115.23 84C117.38 80.29 118.12 76.96 119.47 65C120.37 57.03 121.77 46 122.59 40.5C123.41 35 124.74 26.79 125.54 22.25C126.34 17.71 127 12.2 127 10C127 7.8 127.54 4.87 128.2 3.5C128.86 2.12 129.47 1.11 129.55 1.25ZM184.25 99.04C184.66 99.02 185 99.68 185 100.51C185 101.33 185.11 102.02 185.25 102.03C185.39 102.04 187.19 101.37 189.25 100.53C191.31 99.69 193.23 99.01 193.5 99.01C193.78 99.01 194 100.81 194 103.01C194 106.35 194.37 107.09 196.25 107.5C197.49 107.77 199.51 107.99 200.75 108C202.11 108.01 203.11 108.7 203.27 109.76C203.42 110.72 195.94 126.81 169.76 179.51L164.13 168.25C159.65 159.28 158.57 156.23 158.87 153.25C159.2 149.87 159.37 149.68 160.62 151.26C161.92 152.9 162.16 152.86 164.5 150.51C165.87 149.14 167 147 167 145.76C167 144.52 167.88 141.26 168.95 138.51C170.02 135.76 172.05 129.35 173.45 124.26C174.85 119.17 176 113.77 175.99 112.26C175.99 110.75 176.95 107.71 178.13 105.51C179.31 103.31 181 100.96 181.88 100.29C182.77 99.62 183.83 99.06 184.24 99.04H184.25Z" fill="#1D938D"/>
<path d="M6.91002 4.05C9.98002 5.83 14.08 8.35 16 9.63C17.92 10.92 20.63 12.73 22 13.66C23.37 14.59 27.87 17.83 32 20.86C36.13 23.89 40.05 27.07 40.72 27.93C41.39 28.79 41.95 29.83 41.97 30.24C41.99 30.65 40.99 30.98 39.75 30.97C38.51 30.96 36.04 31.41 34.25 31.97C31.91 32.7 30.82 33.76 30.37 35.74C30.02 37.25 30.24 40.06 30.84 41.99C31.45 43.91 34.19 48.19 36.94 51.49C39.69 54.79 41.95 58.05 41.97 58.74C41.98 59.43 40.42 60.66 38.5 61.49C36.58 62.31 34.21 62.99 33.25 62.98C31.96 62.97 27.49 55.01 16.27 32.73C7.89002 16.1 1.10002 2.11 1.18002 1.64C1.26002 1.17 3.84002 2.25 6.91002 4.04V4.05ZM208.47 1H227.73C238.32 1 246.99 1.23 246.99 1.5C246.99 1.77 242.49 8.07 236.99 15.5C231.36 23.1 227.26 29.55 227.61 30.25C228 31.04 233.29 26.4 242.11 17.5C249.75 9.8 255.99 4.06 255.99 4.75C255.99 5.44 251.44 15.11 245.89 26.25C240.33 37.39 235.72 46.65 235.64 46.82C235.56 47 233.8 46.66 231.74 46.07C229.18 45.34 226.88 45.31 224.49 46C221.99 46.71 220.99 47.57 220.99 49C220.99 50.11 220.32 51 219.49 51C218.67 51 216.64 52.13 214.99 53.5C213.12 55.06 211.99 56.94 211.99 58.5C211.99 60.08 210.35 62.74 207.52 65.75C205.06 68.36 203.04 71.06 203.02 71.75C203 72.44 201.07 73.71 198.74 74.59C196.4 75.46 192.69 76.19 190.49 76.2C188.29 76.21 184.91 75.91 182.99 75.54C181.07 75.16 178.7 74.67 177.74 74.43C176.66 74.17 175.99 74.58 175.99 75.5C175.99 76.43 175.05 77 173.49 77C171.07 77 171.27 76.43 180.31 58.25C185.44 47.94 193.87 30.84 199.05 20.25L208.46 1H208.47Z" fill="#3DB1AC"/>
<path d="M49 1L47.51 6.25C46.69 9.14 46.02 12.51 46.01 13.75C46 14.99 46.45 16 47 16C47.55 16 48.67 14.42 49.5 12.5C50.32 10.58 51.34 8.79 51.75 8.54C52.16 8.29 56.9 16.72 62.27 27.29C67.65 37.86 72.05 46.95 72.05 47.5C72.05 48.05 68.1 56.26 63.28 65.75C58.45 75.24 54.16 83 53.75 83C53.34 83 52.53 80.63 51.95 77.75C51.37 74.86 50.45 72.27 49.9 72C49.35 71.73 48.59 68.5 48.2 64.83C47.82 61.16 47.17 58.35 46.75 58.58C46.34 58.81 46.08 65.64 46.18 73.75C46.28 82.11 45.96 88.68 45.43 88.93C44.92 89.16 41.72 83.76 38.32 76.93C34.93 70.1 32.11 64.28 32.06 64C32.01 63.73 34 62.94 36.48 62.25C38.96 61.56 41.21 60.33 41.49 59.5C41.77 58.65 39.81 55.29 36.97 51.75C34.21 48.31 31.45 43.92 30.84 42C30.23 40.08 30.02 37.26 30.36 35.75C30.81 33.77 31.9 32.71 34.24 31.98C36.03 31.42 38.5 30.97 39.74 30.98C40.98 30.99 41.98 30.66 41.96 30.25C41.94 29.84 41.38 28.8 40.71 27.94C40.04 27.08 36.12 23.92 31.99 20.91C27.87 17.9 23.18 14.56 21.58 13.47C19.1 11.78 18.66 10.81 18.49 2.08L26.49 1.74C30.89 1.55 37.75 1.31 48.99 0.990002L49 1ZM113.09 43.75C113.49 46.91 114.14 53.33 114.55 58C114.96 62.68 114.97 68.3 114.58 70.5C114.07 73.35 113.63 74.07 113.05 73C112.45 71.9 112.05 72.44 111.57 75C111.2 76.92 108.96 81.2 106.59 84.5C104.22 87.8 100.64 91.4 98.63 92.5C96.62 93.6 94.99 95.06 94.99 95.75C94.99 96.44 92.97 97.79 90.5 98.75C88.03 99.71 86 101.06 86 101.75C86 102.44 84.53 103.64 82.75 104.43C80.96 105.22 79.14 105.55 78.69 105.18C78.24 104.81 85.16 89.88 94.06 72C102.96 54.13 110.72 39.16 111.31 38.75C112.01 38.26 112.62 39.97 113.1 43.75H113.09Z" fill="#104B47"/>
<path d="M224.81 66.5C225 67.6 224.22 70.3 223.08 72.5C221.11 76.28 221 76.35 221 73.75C221 72.24 221.45 71 222 71C222.55 71 222.95 70.66 222.89 70.25C222.83 69.84 223.16 68.37 223.62 67C224.37 64.77 224.5 64.72 224.81 66.5ZM214.41 80C215.56 80 216 80.96 216 83.5C216 85.82 213.89 91.14 209.76 99.25C206.33 105.99 203.4 110.71 203.26 109.75C203.1 108.68 202.12 107.99 200.75 107.99C199.51 107.98 197.49 107.76 196.25 107.49C194.37 107.08 194 106.34 194 103C194 100.8 193.78 99 193.5 99C193.23 99 191.31 99.69 189.25 100.52C187.19 101.36 185.39 102.03 185.25 102.02C185.11 102.01 185 101.32 185 100.5C185 99.68 184.66 99.01 184.25 99.03C183.84 99.05 182.78 99.61 181.89 100.28C181 100.95 179.32 103.3 178.14 105.5C176.96 107.7 176 110.74 176 112.25C176 113.76 174.86 119.16 173.46 124.25C172.06 129.34 170.04 135.75 168.96 138.5C167.89 141.25 167.01 144.51 167.01 145.75C167.01 146.99 165.88 149.13 164.51 150.5C162.15 152.86 161.93 152.9 160.54 151.25C159.19 149.64 159.07 149.76 159.04 152.75C159.02 154.54 158.67 155.84 158.26 155.64C157.85 155.44 156.5 153.19 155.26 150.64C154.02 148.09 153.01 144.88 153.01 143.5C153.01 142.13 153.96 138.64 155.13 135.75C156.29 132.86 157.67 127.35 158.18 123.5C158.69 119.65 159.22 115.83 159.35 115C159.48 114.18 161.21 110.57 163.19 107C165.17 103.42 166.95 98.99 167.15 97.14C167.45 94.41 168.26 93.38 171.51 91.64C173.71 90.46 175.73 89.16 176.01 88.75C176.29 88.34 180.34 88.2 185.02 88.44C189.7 88.68 195.32 88.45 197.52 87.92C199.72 87.39 203.32 86.8 205.52 86.6C207.72 86.4 210.53 85.74 211.77 85.12C213.38 84.31 213.85 83.43 213.43 81.99C213.01 80.58 213.31 79.99 214.43 79.99L214.41 80Z" fill="#259A94"/>
<path d="M227.5 45.06C228.05 45.01 229.96 45.42 231.75 45.98C233.54 46.54 234.99 47.33 234.99 47.75C234.98 48.16 232.85 52.69 230.24 57.8C227.43 63.32 225.25 66.57 224.87 65.8C224.45 64.94 223.99 65.35 223.51 67C223.11 68.37 222.83 69.84 222.89 70.25C222.95 70.66 222.55 71 222 71C221.45 71 221.01 72.24 221.01 73.75C221.02 75.26 220.01 78.53 218.78 81C216.65 85.27 216.52 85.36 216.27 82.75C216.11 81.09 215.4 80 214.5 80C213.5 80 213.17 80.67 213.5 82C213.85 83.38 213.31 84.35 211.75 85.13C210.51 85.75 207.7 86.42 205.5 86.61C203.3 86.81 199.7 87.4 197.5 87.93C195.3 88.46 189.68 88.69 185 88.45C180.33 88.21 176.27 88.34 175.99 88.76C175.71 89.17 173.69 90.47 171.49 91.65C168.24 93.39 167.43 94.42 167.13 97.15C166.93 99 165.15 103.44 163.17 107.01C161.19 110.58 159.46 114.19 159.33 115.01C159.2 115.83 158.67 119.66 158.16 123.51C157.65 127.36 156.27 132.87 155.11 135.76C153.95 138.65 152.99 142.25 152.99 143.76C152.99 146 152.34 145.26 149.49 139.76C147.57 136.05 145.99 131.66 145.99 130.01C145.99 128.17 150.82 117.34 158.49 102.01C169.82 79.34 171.22 77.01 173.49 77.01C175.05 77.01 175.99 76.44 175.99 75.51C175.99 74.59 176.66 74.17 177.74 74.44C178.7 74.67 181.06 75.17 182.99 75.55C184.91 75.93 188.29 76.22 190.49 76.21C192.69 76.2 196.4 75.47 198.74 74.6C201.08 73.73 203.01 72.45 203.02 71.76C203.04 71.07 205.06 68.37 207.52 65.76C210.35 62.75 211.99 60.09 211.99 58.51C211.99 56.95 213.12 55.07 214.99 53.51C216.64 52.14 218.67 51.01 219.49 51.01C220.37 51.01 220.91 50.22 220.79 49.09C220.65 47.77 221.51 46.86 223.54 46.17C225.16 45.62 226.94 45.12 227.49 45.07L227.5 45.06Z" fill="#2FA39E"/>
<path d="M25 1.39C34.3 1.4 34.33 1.41 18 2L18.62 5.25C18.99 7.21 18.79 8.8 18.12 9.25C17.5 9.67 14 8.24 3.5 2.08L9.5 1.73C12.8 1.54 19.77 1.39 25 1.4V1.39ZM126.58 9.6C126.92 11.2 126.51 16.55 125.66 21.5C124.81 26.45 123.44 35 122.61 40.5C121.78 46 120.37 57.02 119.47 65C118.13 76.96 117.38 80.29 115.23 84C113.8 86.47 108.29 92.77 102.99 98C97.69 103.23 87.99 111.66 81.43 116.75C74.87 121.84 68.93 126 68.25 126C67.5 126 69.11 121.77 72.25 115.48C75.14 109.7 77.95 105.15 78.5 105.37C79.05 105.6 80.96 105.15 82.75 104.39C84.54 103.62 86 102.43 86 101.75C86 101.06 88.03 99.71 90.5 98.75C92.97 97.79 94.99 96.44 94.99 95.75C94.99 95.06 96.62 93.6 98.63 92.5C100.64 91.4 104.22 87.8 106.59 84.5C108.96 81.2 111.2 76.93 111.57 75C112.06 72.44 112.46 71.9 113.05 73C113.63 74.07 114.07 73.35 114.58 70.5C114.97 68.3 115.01 63.13 114.66 59C114.31 54.87 113.69 48.5 113.27 44.83C112.85 41.16 112.17 38.35 111.76 38.58C111.35 38.81 111.01 38.77 111.01 38.5C111.01 38.23 114.38 30.96 118.49 22.35C125.15 8.4 126.04 7.01 126.59 9.6H126.58ZM47.67 58C47.85 58 48 59.13 48 60.5C48 61.88 47.55 63 47 63C46.45 63 45.92 62.17 45.83 61.17C45.74 60.16 46.04 59.04 46.5 58.67C46.96 58.3 47.48 58 47.67 58ZM50.58 72.5C50.81 73.05 51.64 75.97 52.43 79C53.23 82.08 53.49 84.94 53.01 85.5C52.51 86.08 51.71 83.79 51.09 80C50.5 76.43 50.05 73.05 50.09 72.5C50.14 71.83 50.3 71.83 50.58 72.5Z" fill="#164C48"/>
<path opacity="0.3" d="M47.77 67.5C48.21 68.05 48.33 74.58 48.04 82C47.56 94.01 47.35 95.22 46.17 93C45.21 91.19 45.14 90.22 45.94 89.5C46.62 88.88 47.03 84.27 47.01 77.5C46.99 71.45 47.34 66.95 47.78 67.5H47.77Z" fill="#BCD5D5"/>
<path d="M8.49999 1.33C12.35 1.33 13.7 1.51 11.5 1.73C9.29999 1.95 6.14999 1.94 4.49999 1.72C2.84999 1.5 4.64999 1.32 8.49999 1.33ZM47 63C47.55 63 47.99 63.79 47.98 64.75C47.97 65.71 47.53 67.18 47 68C46.26 69.14 46.03 68.72 46.02 66.25C46.01 64.46 46.45 63 47 63Z" fill="#205253"/>
<path opacity="0.5" d="M24.75 0.210001C38.36 0.320001 45.68 0.540001 41 0.700001C36.32 0.860001 25.19 1.1 16.25 1.24C7.31 1.38 0 1.16 0 0.750001C0 0.340001 11.14 0.0900006 24.75 0.210001Z" fill="#8DB2AE"/>
<path opacity="0.9" d="M46.74 73.5C46.95 76.25 46.94 80.3 46.73 82.5C46.52 84.7 46.35 82.45 46.36 77.5C46.36 72.55 46.53 70.75 46.74 73.5Z" fill="#335251"/>
<path opacity="0.6" d="M226.5 0.400002C234.75 0.400002 238.35 0.550002 234.5 0.740002C230.65 0.930001 223.9 0.930001 219.5 0.740002C215.1 0.550002 218.25 0.400002 226.5 0.400002Z" fill="#8FB0AB"/>
<path opacity="0.3" d="M224.92 33.49C225.24 33.77 224.6 34.9 223.5 36C222.4 37.11 221.28 37.79 221 37.51C220.73 37.24 221.36 36.1 222.42 35C223.47 33.89 224.6 33.21 224.92 33.49Z" fill="#BCD5D5"/>
</g>
<defs>
<clipPath id="clip0_14_2">
<rect width="256" height="180" fill="white"/>
</clipPath>
</defs>
</svg>
